<svg id="canvas" width="409.896" height="127.797" viewBox="333.210 231.238 409.896 127.797" preserveAspectRatio="xMidYMid meet" class="h-full w-full max-w-4xl text-primary transition-opacity duration-300 opacity-100" xmlns="http://www.w3.org/2000/svg"><g id="canvas-strokes"><path d="M 338.95,355.70 C 339.63 355.16, 340.03 354.36, 340.52 352.69 C 341.02 351.03, 341.24 349.95, 341.42 347.37 C 341.60 344.79, 341.42 343.22, 341.43 339.79 C 341.44 336.36, 341.39 334.25, 341.48 330.22 C 341.58 326.19, 341.56 324.04, 341.91 319.65 C 342.26 315.25, 342.63 312.94, 343.23 308.23 C 343.82 303.52, 344.08 300.87, 344.88 296.11 C 345.67 291.34, 346.10 289.01, 347.21 284.40 C 348.31 279.80, 348.98 277.44, 350.41 273.08 C 351.84 268.72, 352.66 266.54, 354.35 262.61 C 356.04 258.69, 356.98 256.75, 358.87 253.44 C 360.76 250.13, 361.83 248.59, 363.80 246.05 C 365.76 243.52, 366.88 242.38, 368.70 240.77 C 370.52 239.15, 371.32 238.45, 372.89 237.99 C 374.45 237.52, 375.14 237.67, 376.52 238.45 C 377.90 239.22, 378.45 240.04, 379.79 241.85 C 381.13 243.66, 381.89 244.83, 383.21 247.51 C 384.54 250.19, 385.32 251.83, 386.40 255.24 C 387.49 258.65, 387.91 260.60, 388.64 264.54 C 389.37 268.47, 389.74 270.63, 390.04 274.92 C 390.33 279.20, 390.27 281.70, 390.13 285.95 C 389.98 290.20, 389.85 292.17, 389.31 296.17 C 388.78 300.18, 388.32 302.41, 387.43 305.99 C 386.54 309.57, 386.11 311.22, 384.86 314.07 C 383.62 316.92, 382.72 318.01, 381.21 320.24 C 379.71 322.48, 378.91 323.62, 377.35 325.25 C 375.78 326.88, 374.97 327.52, 373.38 328.39 C 371.79 329.27, 371.03 329.50, 369.40 329.64 C 367.76 329.79, 366.69 329.66, 365.18 329.12 C 363.68 328.58, 363.00 328.14, 361.87 326.96 C 360.75 325.78, 360.33 324.96, 359.57 323.22 C 358.81 321.47, 358.45 320.32, 358.07 318.23 C 357.70 316.14, 357.57 314.94, 357.68 312.76 C 357.78 310.58, 358.01 309.47, 358.61 307.33 C 359.21 305.20, 359.63 304.09, 360.67 302.09 C 361.71 300.10, 362.26 299.26, 363.81 297.37 C 365.36 295.48, 366.33 294.47, 368.40 292.65 C 370.46 290.83, 371.70 289.91, 374.14 288.27 C 376.57 286.63, 377.90 285.81, 380.58 284.44 C 383.25 283.08, 384.68 282.40, 387.51 281.44 C 390.33 280.48, 391.93 280.25, 394.70 279.65 C 397.47 279.05, 398.88 278.70, 401.36 278.45 C 403.84 278.19, 404.89 278.13, 407.10 278.39 C 409.32 278.64, 410.38 279.02, 412.43 279.73 C 414.48 280.44, 415.60 280.89, 417.35 281.95 C 419.11 283.02, 419.88 283.57, 421.23 285.07 C 422.57 286.57, 423.03 287.48, 424.06 289.46 C 425.09 291.43, 425.58 292.58, 426.38 294.95 C 427.17 297.33, 427.45 298.68, 428.04 301.33 C 428.63 303.97, 428.94 305.37, 429.32 308.18 C 429.70 311.00, 429.71 312.56, 429.93 315.39 C 430.14 318.22, 430.16 319.69, 430.39 322.32 C 430.62 324.96, 430.71 326.25, 431.07 328.55 C 431.44 330.85, 431.64 331.94, 432.23 333.84 C 432.83 335.74, 433.15 336.70, 434.04 338.05 C 434.93 339.41, 435.44 339.98, 436.69 340.61 C 437.95 341.24, 438.85 341.37, 440.31 341.20 C 441.78 341.02, 442.51 340.77, 444.02 339.74 C 445.54 338.71, 446.35 337.86, 447.91 336.04 C 449.47 334.23, 450.25 332.96, 451.82 330.66 C 453.39 328.36, 454.00 327.07, 455.75 324.53 C 457.50 322.00, 458.58 320.62, 460.57 317.98 C 462.55 315.35, 463.63 313.91, 465.67 311.35 C 467.72 308.79, 468.81 307.41, 470.80 305.19 C 472.80 302.97, 473.87 301.83, 475.65 300.25 C 477.44 298.68, 478.30 298.20, 479.74 297.32 C 481.18 296.43, 481.85 296.05, 482.85 295.83 C 483.85 295.61, 484.10 295.70, 484.76 296.22 C 485.41 296.75, 485.67 297.21, 486.14 298.45 C 486.62 299.70, 486.81 300.54, 487.13 302.44 C 487.45 304.35, 487.62 305.61, 487.75 307.96 C 487.87 310.31, 487.86 311.51, 487.77 314.19 C 487.67 316.87, 487.50 318.52, 487.28 321.35 C 487.06 324.17, 486.84 325.61, 486.66 328.33 C 486.49 331.04, 486.27 332.54, 486.39 334.90 C 486.51 337.27, 486.49 338.44, 487.27 340.14 C 488.05 341.85, 488.92 342.71, 490.30 343.42 C 491.68 344.13, 492.57 344.08, 494.18 343.70 C 495.78 343.32, 496.68 342.87, 498.33 341.52 C 499.99 340.17, 500.84 339.06, 502.46 336.95 C 504.07 334.85, 504.65 333.47, 506.41 331.00 C 508.17 328.52, 509.28 327.10, 511.24 324.59 C 513.19 322.07, 514.30 320.67, 516.17 318.43 C 518.04 316.20, 518.89 315.24, 520.60 313.42 C 522.30 311.59, 523.39 310.56, 524.69 309.30 C 525.99 308.04, 526.34 307.53, 527.09 307.11 C 527.84 306.69, 528.06 306.64, 528.44 307.20 C 528.82 307.76, 528.86 308.31, 528.98 309.92 C 529.11 311.54, 529.07 312.89, 529.07 315.27 C 529.07 317.64, 529.17 318.96, 528.98 321.80 C 528.79 324.64, 528.55 326.46, 528.10 329.44 C 527.65 332.42, 527.02 334.15, 526.71 336.71 C 526.40 339.27, 526.31 340.62, 526.54 342.25 C 526.78 343.87, 527.19 344.51, 527.88 344.82 C 528.57 345.13, 529.10 344.79, 529.98 343.81 C 530.87 342.83, 531.48 341.88, 532.31 339.92 C 533.14 337.95, 533.40 336.49, 534.14 334.00 C 534.88 331.52, 535.10 330.02, 536.01 327.48 C 536.92 324.94, 537.45 323.66, 538.68 321.30 C 539.92 318.94, 540.61 317.72, 542.18 315.67 C 543.76 313.63, 544.70 312.70, 546.55 311.08 C 548.41 309.45, 549.44 308.70, 551.46 307.55 C 553.49 306.41, 554.60 305.92, 556.67 305.36 C 558.75 304.79, 559.85 304.65, 561.83 304.74 C 563.80 304.83, 564.71 305.09, 566.54 305.82 C 568.36 306.55, 569.35 307.06, 570.96 308.38 C 572.57 309.69, 573.36 310.54, 574.57 312.39 C 575.78 314.23, 576.26 315.44, 577.01 317.61 C 577.75 319.78, 578.00 320.98, 578.30 323.25 C 578.59 325.52, 578.46 326.71, 578.50 328.97 C 578.54 331.23, 578.49 332.48, 578.50 334.54 C 578.51 336.60, 578.34 337.40, 578.54 339.26 C 578.74 341.12, 578.81 342.19, 579.51 343.85 C 580.20 345.50, 580.85 346.41, 582.02 347.55 C 583.20 348.70, 583.82 348.93, 585.37 349.57 C 586.92 350.20, 587.82 350.59, 589.78 350.72 C 591.74 350.85, 592.86 350.71, 595.17 350.23 C 597.48 349.76, 598.75 349.39, 601.32 348.34 C 603.88 347.29, 605.25 346.62, 607.98 344.99 C 610.71 343.36, 612.22 342.17, 614.96 340.19 C 617.69 338.20, 618.95 337.17, 621.63 335.05 C 624.31 332.93, 625.75 331.73, 628.36 329.58 C 630.96 327.43, 632.49 326.26, 634.65 324.29 C 636.81 322.32, 637.87 321.22, 639.16 319.74 C 640.44 318.26, 640.79 317.68, 641.09 316.90 C 641.39 316.13, 641.17 316.04, 640.66 315.86 C 640.16 315.68, 639.67 315.47, 638.57 316.01 C 637.47 316.55, 636.42 317.08, 635.14 318.56 C 633.86 320.05, 633.27 321.42, 632.18 323.44 C 631.09 325.45, 630.58 326.50, 629.68 328.63 C 628.78 330.76, 628.22 331.87, 627.67 334.10 C 627.12 336.34, 626.81 337.57, 626.93 339.80 C 627.04 342.02, 627.28 343.28, 628.23 345.24 C 629.18 347.20, 630.00 348.19, 631.69 349.62 C 633.38 351.05, 634.32 351.58, 636.68 352.41 C 639.04 353.23, 640.61 353.60, 643.47 353.76 C 646.34 353.92, 648.00 353.76, 651.02 353.21 C 654.04 352.66, 655.43 352.07, 658.56 351.01 C 661.70 349.94, 663.48 349.28, 666.69 347.87 C 669.90 346.46, 671.53 345.67, 674.62 343.94 C 677.70 342.21, 679.22 341.14, 682.09 339.23 C 684.96 337.33, 686.50 336.35, 688.96 334.44 C 691.42 332.53, 692.51 331.64, 694.39 329.68 C 696.27 327.73, 697.13 326.63, 698.35 324.66 C 699.58 322.69, 700.16 321.62, 700.52 319.84 C 700.87 318.06, 700.74 317.20, 700.12 315.77 C 699.49 314.34, 698.87 313.33, 697.38 312.67 C 695.89 312.00, 694.58 312.04, 692.67 312.44 C 690.77 312.85, 689.70 313.62, 687.84 314.71 C 685.97 315.80, 685.07 316.31, 683.36 317.90 C 681.64 319.49, 680.65 320.58, 679.25 322.66 C 677.84 324.74, 677.06 325.93, 676.32 328.31 C 675.59 330.69, 675.54 332.15, 675.58 334.57 C 675.61 336.98, 675.72 338.14, 676.49 340.39 C 677.26 342.64, 677.81 343.79, 679.43 345.82 C 681.06 347.84, 682.20 348.97, 684.61 350.53 C 687.02 352.08, 688.58 352.67, 691.47 353.60 C 694.36 354.52, 695.94 354.70, 699.06 355.15 C 702.17 355.59, 703.86 355.71, 707.05 355.80 C 710.25 355.89, 711.99 355.84, 715.02 355.58 C 718.05 355.32, 719.45 355.00, 722.21 354.49 C 724.96 353.98, 726.44 353.71, 728.81 353.04 C 731.17 352.36, 732.24 351.95, 734.03 351.11 C 735.83 350.28, 736.61 349.65, 737.79 348.86 C 738.97 348.06, 739.60 347.77, 739.93 347.14 C 740.26 346.51, 740.14 345.99, 739.45 345.70 C 738.75 345.41, 737.87 345.40, 736.46 345.70 C 735.06 345.99, 734.18 346.54, 732.42 347.15 C 730.66 347.77, 729.86 348.20, 727.65 348.77 C 725.44 349.34, 723.98 349.51, 721.38 349.99 C 718.77 350.46, 717.45 350.88, 714.61 351.16 C 711.77 351.44, 710.16 351.50, 707.18 351.41 C 704.21 351.32, 702.58 351.18, 699.74 350.70 C 696.90 350.23, 695.49 349.89, 692.98 349.03 C 690.47 348.17, 689.21 347.64, 687.20 346.41 C 685.18 345.19, 684.22 344.38, 682.89 342.90 C 681.55 341.42, 681.09 340.67, 680.52 339.01 C 679.96 337.35, 680.00 336.44, 680.06 334.59 C 680.11 332.74, 680.17 331.60, 680.81 329.77 C 681.45 327.94, 682.08 327.07, 683.25 325.44 C 684.42 323.81, 685.22 322.85, 686.67 321.61 C 688.12 320.37, 688.95 320.12, 690.48 319.23 C 692.01 318.34, 693.13 317.84, 694.32 317.16 C 695.52 316.49, 695.89 315.92, 696.46 315.85 C 697.03 315.78, 697.06 316.23, 697.16 316.83 C 697.26 317.42, 697.43 317.73, 696.96 318.82 C 696.49 319.91, 695.95 320.72, 694.81 322.30 C 693.67 323.87, 692.96 324.92, 691.27 326.69 C 689.58 328.46, 688.62 329.29, 686.35 331.15 C 684.07 333.00, 682.61 334.08, 679.88 335.96 C 677.16 337.84, 675.67 338.90, 672.72 340.54 C 669.76 342.18, 668.20 342.90, 665.11 344.19 C 662.02 345.47, 660.24 346.08, 657.28 346.95 C 654.31 347.82, 652.99 348.19, 650.29 348.54 C 647.58 348.90, 646.18 348.82, 643.73 348.71 C 641.28 348.60, 639.91 348.44, 638.03 347.97 C 636.15 347.51, 635.52 347.29, 634.33 346.37 C 633.15 345.46, 632.70 344.76, 632.10 343.42 C 631.49 342.08, 631.31 341.29, 631.32 339.67 C 631.32 338.06, 631.55 337.11, 632.11 335.33 C 632.67 333.55, 633.13 332.54, 634.11 330.77 C 635.10 329.00, 635.80 328.16, 637.03 326.48 C 638.26 324.79, 639.25 323.92, 640.24 322.35 C 641.23 320.77, 641.70 319.88, 641.98 318.61 C 642.26 317.34, 642.06 316.71, 641.63 315.99 C 641.20 315.26, 640.87 314.85, 639.81 314.98 C 638.76 315.11, 638.01 315.44, 636.35 316.62 C 634.69 317.81, 633.65 318.91, 631.52 320.88 C 629.39 322.86, 628.17 324.28, 625.70 326.49 C 623.23 328.69, 621.79 329.85, 619.16 331.90 C 616.52 333.95, 615.23 334.92, 612.54 336.72 C 609.84 338.53, 608.29 339.53, 605.68 340.92 C 603.06 342.30, 601.79 342.77, 599.47 343.65 C 597.14 344.53, 595.98 344.82, 594.05 345.31 C 592.12 345.80, 591.30 346.00, 589.83 346.09 C 588.36 346.19, 587.71 346.04, 586.70 345.77 C 585.70 345.51, 585.47 345.48, 584.81 344.78 C 584.16 344.08, 583.86 343.46, 583.43 342.28 C 582.99 341.10, 582.74 340.42, 582.63 338.89 C 582.53 337.37, 582.81 336.65, 582.92 334.65 C 583.03 332.66, 583.18 331.32, 583.18 328.92 C 583.17 326.52, 583.23 325.22, 582.90 322.65 C 582.56 320.08, 582.38 318.65, 581.50 316.07 C 580.63 313.49, 580.06 312.00, 578.52 309.75 C 576.98 307.49, 575.88 306.39, 573.80 304.78 C 571.72 303.18, 570.46 302.61, 568.11 301.73 C 565.76 300.85, 564.56 300.55, 562.05 300.40 C 559.54 300.26, 558.10 300.39, 555.55 301.03 C 552.99 301.67, 551.66 302.29, 549.27 303.61 C 546.87 304.93, 545.71 305.79, 543.57 307.63 C 541.42 309.47, 540.35 310.54, 538.54 312.82 C 536.73 315.10, 535.96 316.47, 534.51 319.03 C 533.06 321.58, 532.49 322.94, 531.30 325.58 C 530.12 328.21, 529.50 329.64, 528.59 332.18 C 527.68 334.72, 527.15 336.12, 526.76 338.28 C 526.38 340.44, 526.34 341.69, 526.66 343.00 C 526.99 344.31, 527.68 344.89, 528.38 344.84 C 529.09 344.79, 529.53 344.19, 530.18 342.73 C 530.82 341.27, 531.07 340.05, 531.61 337.54 C 532.16 335.03, 532.40 333.25, 532.88 330.19 C 533.37 327.13, 533.73 325.25, 534.05 322.24 C 534.37 319.24, 534.57 317.87, 534.47 315.17 C 534.38 312.46, 534.40 310.80, 533.58 308.73 C 532.75 306.67, 531.81 305.75, 530.35 304.83 C 528.89 303.91, 527.92 303.89, 526.27 304.14 C 524.61 304.38, 523.86 304.82, 522.07 306.05 C 520.28 307.28, 519.19 308.37, 517.32 310.27 C 515.45 312.17, 514.66 313.25, 512.73 315.55 C 510.81 317.85, 509.76 319.27, 507.70 321.76 C 505.65 324.26, 504.40 325.65, 502.48 328.02 C 500.56 330.40, 499.65 331.64, 498.12 333.64 C 496.60 335.64, 495.92 336.66, 494.85 338.03 C 493.79 339.40, 493.42 339.91, 492.80 340.49 C 492.17 341.07, 492.11 341.24, 491.71 340.94 C 491.31 340.64, 490.97 340.19, 490.80 338.99 C 490.63 337.79, 490.71 336.98, 490.85 334.92 C 491.00 332.87, 491.26 331.36, 491.52 328.72 C 491.78 326.09, 491.89 324.62, 492.15 321.76 C 492.40 318.89, 492.66 317.22, 492.80 314.41 C 492.94 311.60, 492.97 310.31, 492.84 307.71 C 492.72 305.10, 492.76 303.65, 492.19 301.37 C 491.62 299.09, 491.13 297.92, 490.00 296.29 C 488.87 294.67, 488.04 294.00, 486.53 293.23 C 485.02 292.47, 484.15 292.35, 482.43 292.47 C 480.71 292.59, 479.83 292.96, 477.91 293.84 C 475.99 294.73, 474.89 295.21, 472.82 296.91 C 470.75 298.61, 469.64 299.95, 467.57 302.32 C 465.49 304.70, 464.51 306.17, 462.44 308.79 C 460.38 311.40, 459.32 312.81, 457.25 315.41 C 455.18 318.01, 454.03 319.37, 452.08 321.79 C 450.13 324.21, 449.18 325.35, 447.50 327.51 C 445.81 329.68, 444.96 330.87, 443.65 332.63 C 442.35 334.38, 441.81 335.23, 440.97 336.27 C 440.14 337.31, 440.05 337.51, 439.50 337.82 C 438.96 338.13, 438.67 338.14, 438.25 337.83 C 437.83 337.52, 437.77 337.29, 437.39 336.27 C 437.01 335.24, 436.75 334.36, 436.35 332.69 C 435.95 331.03, 435.67 330.07, 435.40 327.93 C 435.13 325.79, 435.15 324.56, 434.99 321.98 C 434.83 319.41, 434.82 317.92, 434.61 315.04 C 434.40 312.16, 434.31 310.53, 433.94 307.58 C 433.57 304.64, 433.36 303.14, 432.76 300.30 C 432.15 297.46, 431.85 295.99, 430.91 293.38 C 429.97 290.77, 429.36 289.51, 428.07 287.26 C 426.79 285.01, 426.15 283.94, 424.48 282.12 C 422.80 280.29, 421.83 279.45, 419.70 278.13 C 417.58 276.81, 416.27 276.31, 413.85 275.52 C 411.43 274.72, 410.16 274.44, 407.58 274.16 C 405.00 273.87, 403.72 273.84, 400.95 274.08 C 398.19 274.31, 396.72 274.65, 393.75 275.32 C 390.78 275.98, 389.13 276.34, 386.11 277.40 C 383.09 278.46, 381.54 279.19, 378.65 280.61 C 375.77 282.04, 374.36 282.83, 371.69 284.53 C 369.02 286.23, 367.60 287.12, 365.31 289.11 C 363.01 291.11, 361.94 292.31, 360.22 294.49 C 358.50 296.67, 357.90 297.71, 356.69 300.02 C 355.48 302.33, 354.93 303.54, 354.17 306.03 C 353.42 308.53, 353.10 309.87, 352.92 312.48 C 352.75 315.10, 352.81 316.58, 353.30 319.13 C 353.79 321.67, 354.28 323.01, 355.38 325.19 C 356.47 327.38, 357.10 328.45, 358.78 330.07 C 360.45 331.68, 361.55 332.51, 363.76 333.26 C 365.96 334.00, 367.52 334.05, 369.82 333.79 C 372.13 333.53, 373.19 333.06, 375.30 331.94 C 377.41 330.83, 378.48 330.10, 380.36 328.21 C 382.25 326.32, 383.12 325.05, 384.71 322.50 C 386.30 319.95, 387.10 318.62, 388.30 315.47 C 389.50 312.32, 389.88 310.53, 390.71 306.75 C 391.54 302.97, 391.95 300.71, 392.45 296.57 C 392.96 292.43, 393.07 290.43, 393.23 286.06 C 393.38 281.69, 393.47 279.14, 393.22 274.72 C 392.98 270.30, 392.63 268.08, 392.00 263.97 C 391.38 259.86, 391.06 257.85, 390.12 254.17 C 389.17 250.50, 388.63 248.64, 387.27 245.60 C 385.91 242.57, 385.15 241.11, 383.31 239.00 C 381.47 236.90, 380.32 235.97, 378.07 235.08 C 375.81 234.18, 374.43 234.01, 372.03 234.53 C 369.63 235.05, 368.28 235.81, 366.05 237.68 C 363.81 239.55, 362.86 241.04, 360.86 243.89 C 358.86 246.73, 357.89 248.38, 356.05 251.90 C 354.20 255.41, 353.28 257.41, 351.62 261.47 C 349.96 265.54, 349.17 267.76, 347.75 272.22 C 346.33 276.68, 345.66 279.08, 344.54 283.77 C 343.42 288.45, 342.98 290.82, 342.14 295.64 C 341.31 300.46, 341.04 303.10, 340.37 307.85 C 339.70 312.59, 339.29 314.91, 338.79 319.35 C 338.29 323.78, 338.23 325.97, 337.86 330.02 C 337.50 334.06, 337.29 336.16, 336.96 339.57 C 336.64 342.99, 336.34 344.54, 336.24 347.09 C 336.14 349.64, 336.31 350.64, 336.48 352.30 C 336.65 353.97, 336.60 354.74, 337.10 355.42 C 337.59 356.10, 338.26 356.25, 338.95 355.70" style="stroke: black; fill: black;"/></g></svg>