<?xml version="1.0" encoding="UTF-8"?>
<svg xmlns="http://www.w3.org/2000/svg" viewBox="0 0 312 177">
  <g transform="translate(-451.017317527771,-235.44779032093618)">
    <path d="M474.4,273c19.115,26.03 26.021,63.67 22.811,95.129c-1.483,14.529 -6.06,29.376 -8.514,43.784" fill="none" stroke="rgba(28, 28, 28, 1)" stroke-width="1" vector-effect="non-scaling-stroke"/>
    <path d="M468.8,313c-18.435,-12.026 -16.991,-35.701 -3.36,-50.243c22.486,-23.99 75.98,-39.719 93.118,-1.55c11.904,26.511 -2.739,56.931 -28.935,67.101c-4.625,1.795 -35.64,10.273 -33.511,-3.139c0.813,-5.122 7.41,-8.966 11.402,-11.145c16.127,-8.803 34.346,-11.871 52.264,-14.884c41.16,-6.921 81.759,-14.142 122.19,-24.655c23.821,-6.195 49.18,-17.565 74.188,-18.258" fill="none" stroke="rgba(28, 28, 28, 1)" stroke-width="1" vector-effect="non-scaling-stroke"/>
    <path d="M571.2,333c0.56,-1.874 1.322,-3.458 2.105,-5.229c1.6,-3.62 3.144,-22.873 -6.059,-18.565c-3.658,1.712 2.443,8.513 3.853,9.682c6.506,5.394 15.882,-4.614 16.884,-10.535c0.128,-0.758 0.016,1.686 0.016,2.459c0.001,1.633 0,3.267 0,4.9c0,5.024 4.991,15.987 11.414,8.664c3.737,-4.261 2.986,-9.89 2.986,-15.119c0,-1.6 0,-3.201 0,-4.801c0,-0.804 0,-3.217 0,-2.413c0,5.566 1.156,13.021 6.527,16.224c2.382,1.42 6.892,3.318 8.837,0.237c3.282,-5.197 -1.598,-14.176 3.033,-19.383c9.696,-10.903 14.396,12.669 17.706,16c7.351,7.399 11.095,-7.274 11.097,-11.516" fill="none" stroke="rgba(28, 28, 28, 1)" stroke-width="1" vector-effect="non-scaling-stroke"/>
    <path d="M659.2,293c-2.084,0 -9.104,-1.107 -10.597,0.81c-3.006,3.861 -1.111,19.717 4.485,21.197c2.476,0.655 5.635,-2.125 7.512,-3.421c4.387,-3.029 21.187,-13.285 17.24,-20.576c-1.082,-1.998 -7.547,-5.629 -9.438,-3.052c-2.355,3.21 -1.022,16.806 2.313,18.935c2.582,1.649 8.571,0.506 11.489,0.507c10.526,0.002 18.841,-1.819 27.528,-7.98c2.417,-1.714 7.395,-5.498 7.798,-8.736" fill="none" stroke="rgba(28, 28, 28, 1)" stroke-width="1" vector-effect="non-scaling-stroke"/>
    <path d="M526.4,360.2c7.372,-0.683 14.177,-5.6 21.064,-8.066c14.807,-5.302 30.316,-9.887 45.73,-13.049c43.825,-8.991 88.168,-15.573 131.39,-27.204c12.881,-3.466 26.56,-9.974 37.89,-17.163" fill="none" stroke="rgba(28, 28, 28, 1)" stroke-width="1" vector-effect="non-scaling-stroke"/>
  </g>
</svg>